Coordinates
version=1
nRows=8
nColumns=43
inDegrees=yes

Units are S.I. units (second, meters, Newtons, ...)
If the header above contains a line with 'inDegrees', this indicates whether rotational values are in degrees (yes) or radians (no).

endheader
time	pelvis_tilt	pelvis_list	pelvis_rotation	pelvis_tx	pelvis_ty	pelvis_tz	hip_flexion_r	hip_adduction_r	hip_rotation_r	knee_angle_r	knee_angle_r_beta	socket_rotation_r	socket_piston_r	SP_rotation_r	ankle_angle_r	ankle_evert_r	ankle_ext_rot_r	hip_flexion_l	hip_adduction_l	hip_rotation_l	knee_angle_l	knee_angle_l_beta	ankle_angle_l	subtalar_angle_l	mtp_angle_l	lumbar_extension	lumbar_bending	lumbar_rotation	arm_flex_r	arm_add_r	arm_rot_r	elbow_flex_r	pro_sup_r	wrist_flex_r	wrist_dev_r	arm_flex_l	arm_add_l	arm_rot_l	elbow_flex_l	pro_sup_l	wrist_flex_l	wrist_dev_l
      2.50000000	     -0.49421326	     -0.48518451	     -0.23765523	      0.98778369	      0.98367498	      0.02073284	     -6.51246656	      0.61102085	      4.08312100	      8.75800498	      0.15285602	      0.00000000	      0.00000000	     -0.00000000	     16.42600488	      0.00000000	      9.99997443	     20.06004001	     -4.60090589	     -6.39368896	      1.53192502	      0.02673714	     -3.78792397	      0.00000000	      0.00000000	    -10.37709883	      0.92724636	      9.01583248	     17.52993086	    -23.53050143	     12.28574518	     38.17121412	    128.68880626	      0.00000000	      0.00000000	    -14.37857448	     -8.83914368	    -19.85377290	     31.84527967	    139.98528768	      0.00000000	      0.00000000
      2.50800000	     -0.16269055	     -0.36981467	     -0.19985894	      0.98750371	      0.98256440	      0.01979499	     -7.41329801	      0.40362214	      3.95562399	      8.71319001	      0.15207385	      0.00000000	      0.00000000	      0.00000000	     16.98375762	      0.00000000	      9.99997443	     19.93658258	     -4.34600539	     -6.59577170	      1.56062058	      0.02723797	     -2.83654033	      0.00000000	      0.00000000	    -10.83424206	      0.62812401	      8.59598225	     17.99941340	    -23.43229599	     13.08315681	     38.28807517	    128.86650696	      0.00000000	      0.00000000	    -14.60648357	     -8.76026703	    -20.33485580	     32.19554003	    140.01584196	      0.00000000	      0.00000000
      2.51700000	     -0.27135949	     -0.45646908	     -0.31859121	      0.98730848	      0.98135568	      0.01888595	     -7.74739368	      0.42480486	      4.18942885	      8.73428538	      0.15244204	      0.00000000	      0.00000000	      0.00000000	     17.14475398	      0.00000000	      9.99997443	     20.19284040	     -4.33785420	     -6.26476119	      1.30737325	      0.02281797	     -2.47519476	      0.00000000	      0.00000000	    -10.77411412	      0.62255760	      8.56181996	     18.07455276	    -23.14098262	     13.08187175	     38.51330019	    128.86155553	      0.00000000	      0.00000000	    -14.68970422	     -8.71583633	    -20.13679952	     32.09406484	    140.02394428	      0.00000000	      0.00000000
      2.52500000	      0.11595906	     -0.68548446	     -0.45432290	      0.98711995	      0.98030750	      0.01813642	     -8.60518532	      0.60752508	      4.16528224	      8.80825022	      0.15373297	      0.00000000	      0.00000000	      0.00000000	     17.57291499	      0.00000000	      9.99997443	     19.95474629	     -4.53447260	     -6.05971350	      1.57997040	      0.02757569	     -1.96915057	      0.00000000	      0.00000000	    -11.19965487	      0.66552885	      8.86309654	     17.98105884	    -23.22079476	     13.03151090	     38.86130798	    128.81957686	      0.00000000	      0.00000000	    -14.01999139	     -8.65014097	    -20.11069548	     31.27578877	    139.93494135	      0.00000000	      0.00000000
      2.53300000	      0.43249777	     -0.44626991	     -0.90072749	      0.98729702	      0.97993937	      0.01797279	     -9.38478435	      0.25600574	      4.71131680	      8.88497560	      0.15507208	      0.00000000	      0.00000000	      0.00000000	     17.80509777	      0.00000000	      9.99997443	     19.71441634	     -4.40051032	     -7.02216760	      2.38746742	      0.04166917	     -2.02053197	      0.00000000	      0.00000000	    -11.63094868	      0.18451419	      9.11822818	     18.06747048	    -22.82968319	     12.65813086	     38.97173970	    128.77381194	      0.00000000	      0.00000000	    -14.11104435	     -8.87146293	    -19.52977737	     31.54158263	    139.83238213	      0.00000000	      0.00000000
      2.54200000	      0.70929101	     -0.49910592	     -1.34768727	      0.98848841	      0.97907449	      0.01733439	    -10.18740133	      0.16575743	      5.07384127	      8.96347896	      0.15644222	      0.00000000	      0.00000000	      0.00000000	     18.07524768	      0.00000000	      9.99997443	     19.63208473	     -4.55246096	     -6.91358794	      3.56909384	      0.06229244	     -1.77990754	      0.00000000	      0.00000000	    -11.84895846	      0.03091064	      9.21348892	     17.25534774	    -22.68292406	     11.98656689	     40.58495445	    128.68426846	      0.00000000	      0.00000000	    -14.47685829	     -8.89873255	    -19.57845183	     31.90211685	    139.79996697	      0.00000000	      0.00000000
      2.55000000	      0.71328709	     -0.43745439	     -1.52167481	      0.98909560	      0.97807259	      0.01695368	    -10.63010244	      0.05723726	      5.24028425	      9.09728991	      0.15877766	      0.00000000	      0.00000000	     -0.00000000	     18.27285702	      0.00000000	      9.99997443	     19.77240384	     -4.53887990	     -7.22799634	      4.67010912	      0.08150878	     -2.05432280	      0.00000000	      0.00000000	    -11.77247405	     -0.30651408	      9.34610639	     17.04993562	    -22.47059709	     11.78307370	     40.83987508	    128.61690068	      0.00000000	      0.00000000	    -14.31219748	     -9.09389481	    -19.39808472	     31.71744841	    139.82337038	      0.00000000	      0.00000000
      2.55800000	      0.90828053	     -0.57788696	     -1.78711587	      0.98917850	      0.97689850	      0.01661861	    -11.06516228	      0.16474578	      5.31465579	      9.57419397	      0.16710121	      0.00000000	      0.00000000	      0.00000000	     18.56261632	      0.00000000	      9.99997443	     19.62394504	     -4.72605678	     -7.64213873	      5.15597225	      0.08998869	     -3.05200088	      0.00000000	      0.00000000	    -12.00075244	     -0.42702687	      9.30637046	     17.12460447	    -22.10007478	     11.37284642	     41.04682608	    128.61207783	      0.00000000	      0.00000000	    -14.15717424	     -9.19113105	    -19.24047718	     31.47064950	    139.81997114	      0.00000000	      0.00000000
